<svg width="20" height="19" viewBox="0 0 20 19" fill="none" xmlns="http://www.w3.org/2000/svg">
<path d="M7.50012 18.1666C7.33533 18.1666 7.17425 18.1177 7.03724 18.0261C6.90023 17.9345 6.79345 17.8044 6.73039 17.6521C6.66733 17.4999 6.65083 17.3324 6.68297 17.1707C6.71511 17.0091 6.79445 16.8606 6.91095 16.7441C7.2802 16.4382 7.54815 16.0277 7.6795 15.5665C7.81085 15.1054 7.79945 14.6153 7.64679 14.1608C7.48804 13.7029 7.23767 13.2821 6.91095 12.9241C6.4855 12.5298 6.14608 12.0519 5.91395 11.5204C5.68183 10.9888 5.56201 10.415 5.56201 9.83493C5.56201 9.25489 5.68183 8.68109 5.91395 8.14951C6.14608 7.61793 6.4855 7.14003 6.91095 6.74577C7.06812 6.59397 7.27862 6.50997 7.49712 6.51187C7.71562 6.51377 7.92463 6.60141 8.07914 6.75592C8.23364 6.91043 8.32128 7.11944 8.32318 7.33793C8.32508 7.55643 8.24109 7.76693 8.08929 7.9241C7.72004 8.22997 7.45209 8.64051 7.32074 9.10165C7.18939 9.56279 7.2008 10.0529 7.35345 10.5074C7.51221 10.9653 7.76257 11.3861 8.08929 11.7441C8.51474 12.1384 8.85417 12.6163 9.08629 13.1478C9.31841 13.6794 9.43823 14.2532 9.43823 14.8333C9.43823 15.4133 9.31841 15.9871 9.08629 16.5187C8.85417 17.0503 8.51474 17.5282 8.08929 17.9224C7.93304 18.0787 7.72112 18.1666 7.50012 18.1666Z" fill="#18BC9C"/>
<path d="M19.6292 2.47329C19.5183 2.39913 16.84 0.666626 10 0.666626C3.16 0.666626 0.481667 2.39913 0.370833 2.47329C0.256737 2.54942 0.163194 2.65253 0.0985043 2.77347C0.0338149 2.89442 -2.05161e-05 3.02947 9.33283e-09 3.16663V14C1.99221e-05 14.1501 0.0406189 14.2975 0.117504 14.4265C0.194389 14.5555 0.304703 14.6613 0.436782 14.7328C0.56886 14.8042 0.717795 14.8387 0.867837 14.8325C1.01788 14.8263 1.16345 14.7796 1.28917 14.6975C2.52299 14.0703 3.85953 13.67 5.235 13.5158C4.87493 13.0463 4.57952 12.5306 4.35667 11.9825C3.44179 12.1476 2.54207 12.3878 1.66667 12.7008V3.66663C2.5625 3.25746 5.11667 2.33329 10 2.33329C14.8833 2.33329 17.4433 3.25913 18.3333 3.66663V12.7008C17.3379 12.343 16.3116 12.0778 15.2675 11.9083C15.5968 12.4823 15.8363 13.1034 15.9775 13.75C16.9309 13.9269 17.8522 14.246 18.7108 14.6966C18.8365 14.7787 18.982 14.8254 19.132 14.8316C19.2819 14.8379 19.4308 14.8035 19.5629 14.7321C19.6949 14.6608 19.8052 14.5551 19.8822 14.4262C19.9591 14.2973 19.9998 14.1501 20 14V3.16663C20 3.02947 19.9662 2.89442 19.9015 2.77347C19.8368 2.65253 19.7433 2.54942 19.6292 2.47329Z" fill="#18BC9C"/>
<path d="M12.5001 18.1666C12.3353 18.1666 12.1742 18.1177 12.0372 18.0261C11.9002 17.9345 11.7934 17.8044 11.7304 17.6521C11.6673 17.4999 11.6508 17.3324 11.683 17.1707C11.7151 17.0091 11.7944 16.8606 11.911 16.7441C12.2802 16.4382 12.5481 16.0277 12.6795 15.5665C12.8109 15.1054 12.7994 14.6153 12.6468 14.1608C12.488 13.7029 12.2377 13.2821 11.911 12.9241C11.4855 12.5298 11.1461 12.0519 10.914 11.5204C10.6818 10.9888 10.562 10.415 10.562 9.83493C10.562 9.25489 10.6818 8.68109 10.914 8.14951C11.1461 7.61793 11.4855 7.14003 11.911 6.74577C12.0681 6.59397 12.2786 6.50997 12.4971 6.51187C12.7156 6.51377 12.9246 6.60141 13.0791 6.75592C13.2336 6.91043 13.3213 7.11944 13.3232 7.33793C13.3251 7.55643 13.2411 7.76693 13.0893 7.9241C12.72 8.22997 12.4521 8.64051 12.3207 9.10165C12.1894 9.56279 12.2008 10.0529 12.3535 10.5074C12.5122 10.9653 12.7626 11.3861 13.0893 11.7441C13.5147 12.1384 13.8542 12.6163 14.0863 13.1478C14.3184 13.6794 14.4382 14.2532 14.4382 14.8333C14.4382 15.4133 14.3184 15.9871 14.0863 16.5187C13.8542 17.0503 13.5147 17.5282 13.0893 17.9224C12.933 18.0787 12.7211 18.1666 12.5001 18.1666Z" fill="#18BC9C"/>
</svg>
