<svg width="20" height="20" viewBox="0 0 20 20" fill="none" xmlns="http://www.w3.org/2000/svg">
<path d="M19.1667 5.83333H10.8333V2.5C10.8333 1.08333 9.75 0 8.33333 0C6.91667 0 5.83333 1.08333 5.83333 2.5V3.33333H7.5V2.5C7.5 2 7.83333 1.66667 8.33333 1.66667C8.83333 1.66667 9.16667 2 9.16667 2.5V5.83333H0.833333C0.333333 5.83333 0 6.16667 0 6.66667V7.5C0 11.3333 2.91667 14.5 6.66667 14.9167V19.1667C6.66667 19.6667 7 20 7.5 20H12.5C13 20 13.3333 19.6667 13.3333 19.1667V14.9167C17.0833 14.5 20 11.3333 20 7.5V6.66667C20 6.16667 19.6667 5.83333 19.1667 5.83333Z" fill="#18BC9C"/>
</svg>
