<svg width="20" height="18" viewBox="0 0 20 18" fill="none" xmlns="http://www.w3.org/2000/svg">
<path d="M19.1667 0.666687H0.833333C0.333333 0.666687 0 1.00002 0 1.50002V2.33335H20V1.50002C20 1.00002 19.6667 0.666687 19.1667 0.666687Z" fill="#18BC9C"/>
<path d="M0 4V16.5C0 17 0.333333 17.3333 0.833333 17.3333C1.33333 17.3333 1.66667 17 1.66667 16.5V9H9.16667V4H0ZM6.66667 7.33333H2.5V5.66667H6.66667V7.33333Z" fill="#18BC9C"/>
<path d="M10.8333 4V9H18.3333V16.5C18.3333 17 18.6666 17.3333 19.1666 17.3333C19.6666 17.3333 19.9999 17 19.9999 16.5V4H10.8333ZM17.4999 7.33333H13.3333V5.66667H17.4999V7.33333Z" fill="#18BC9C"/>
</svg>
