<svg width="24" height="24" viewBox="0 0 24 24" fill="none" xmlns="http://www.w3.org/2000/svg">
<path d="M21 11.7435V21H3V3H12.258L15.258 0H1.5C1.10218 0 0.720644 0.158035 0.43934 0.43934C0.158035 0.720644 0 1.10218 0 1.5L0 22.5C0 22.8978 0.158035 23.2794 0.43934 23.5607C0.720644 23.842 1.10218 24 1.5 24H22.5C22.8978 24 23.2794 23.842 23.5607 23.5607C23.842 23.2794 24 22.8978 24 22.5V8.742L21 11.7435Z" fill="#9AA09E"/>
<path d="M23.0998 0.9C22.4932 0.322253 21.6875 0 20.8498 0C20.0121 0 19.2064 0.322253 18.5998 0.9L13.0498 6.45C14.1454 6.82872 15.132 7.46928 15.9238 8.316C16.6271 9.08914 17.1701 9.9941 17.5213 10.9785L23.0998 5.4C23.6776 4.79337 23.9998 3.98773 23.9998 3.15C23.9998 2.31227 23.6776 1.50663 23.0998 0.9Z" fill="#9AA09E"/>
<path d="M7.40566 10.35C5.60566 12.15 5.30566 18.9 5.30566 18.9C5.30566 18.9 11.9057 18.3 13.7057 16.65C14.5348 15.8113 14.9999 14.6794 14.9999 13.5C14.9999 12.3206 14.5348 11.1887 13.7057 10.35C13.2994 9.92341 12.8107 9.58378 12.2692 9.35172C11.7277 9.11966 11.1448 9 10.5557 9C9.96656 9 9.38359 9.11966 8.84212 9.35172C8.30064 9.58378 7.81194 9.92341 7.40566 10.35Z" fill="#9AA09E"/>
</svg>
