<svg width="20" height="20" viewBox="0 0 20 20" fill="none" xmlns="http://www.w3.org/2000/svg">
<path d="M10.345 13.3333L12.0117 11.6666L10.8333 10.4883L9.16665 12.1549L7.84499 10.8333L9.51165 9.16661L8.33332 7.98828L6.66665 9.65495L5.55915 8.54828C5.40288 8.39206 5.19096 8.30429 4.96999 8.30429C4.74902 8.30429 4.53709 8.39206 4.38082 8.54828L3.13082 9.79828C2.29495 10.6331 1.78228 11.7373 1.68401 12.9145C1.58575 14.0917 1.90825 15.2656 2.59415 16.2274L0.244153 18.5774C0.164561 18.6543 0.101076 18.7463 0.0574018 18.8479C0.0137276 18.9496 -0.00926093 19.059 -0.0102224 19.1696C-0.011184 19.2803 0.0099008 19.39 0.0518015 19.4924C0.0937023 19.5948 0.15558 19.6879 0.233824 19.7661C0.312068 19.8444 0.405111 19.9062 0.507525 19.9481C0.609938 19.99 0.719671 20.0111 0.830321 20.0102C0.94097 20.0092 1.05032 19.9862 1.15199 19.9425C1.25366 19.8989 1.34561 19.8354 1.42249 19.7558L3.77249 17.4058C4.73445 18.0918 5.90861 18.4143 7.08603 18.3159C8.26345 18.2174 9.36777 17.7045 10.2025 16.8683L11.4525 15.6183C11.6087 15.462 11.6965 15.2501 11.6965 15.0291C11.6965 14.8081 11.6087 14.5962 11.4525 14.4399L10.345 13.3333Z" fill="#18BC9C"/>
<path d="M14.4408 11.4517C14.5971 11.6079 14.809 11.6956 15.03 11.6956C15.2509 11.6956 15.4628 11.6079 15.6191 11.4517L16.8691 10.2017C17.705 9.36688 18.2177 8.26267 18.3159 7.08544C18.4142 5.90821 18.0917 4.73429 17.4058 3.77249L19.7558 1.42249C19.8354 1.34561 19.8989 1.25366 19.9425 1.15199C19.9862 1.05032 20.0092 0.94097 20.0102 0.830321C20.0111 0.719671 19.99 0.609938 19.9481 0.507525C19.9062 0.405111 19.8444 0.312068 19.7661 0.233824C19.6879 0.15558 19.5948 0.0937023 19.4924 0.0518015C19.39 0.0099008 19.2803 -0.011184 19.1696 -0.0102224C19.059 -0.00926093 18.9496 0.0137276 18.8479 0.0574018C18.7463 0.101076 18.6543 0.164561 18.5775 0.244153L16.2275 2.59415C15.2655 1.90813 14.0913 1.58564 12.9139 1.68406C11.7365 1.78249 10.6322 2.29544 9.79746 3.13165L8.54746 4.38165C8.39123 4.53793 8.30347 4.74985 8.30347 4.97082C8.30347 5.19179 8.39123 5.40371 8.54746 5.55999L14.4408 11.4517Z" fill="#18BC9C"/>
</svg>
