<svg width="20" height="20" viewBox="0 0 20 20" fill="none" xmlns="http://www.w3.org/2000/svg">
<path d="M15 8.33333H20L17.5 5L15 8.33333Z" fill="#18BC9C"/>
<path d="M15 11.6666H20L17.5 15L15 11.6666Z" fill="#18BC9C"/>
<path d="M0.833333 0H5.83333V20H0.833333C0.61232 20 0.400358 19.9122 0.244078 19.7559C0.0877974 19.5996 0 19.3877 0 19.1667V0.833333C0 0.61232 0.0877974 0.400358 0.244078 0.244078C0.400358 0.0877974 0.61232 0 0.833333 0V0Z" fill="#18BC9C"/>
<path d="M7.5 0H12.5C12.721 0 12.933 0.0877974 13.0893 0.244078C13.2455 0.400358 13.3333 0.61232 13.3333 0.833333V19.1667C13.3333 19.3877 13.2455 19.5996 13.0893 19.7559C12.933 19.9122 12.721 20 12.5 20H7.5V0Z" fill="#18BC9C"/>
</svg>
