<svg width="20" height="20" viewBox="0 0 20 20" fill="none" xmlns="http://www.w3.org/2000/svg">
<path d="M19.5 10.9167L13.1667 8.25C12.75 8.08333 12.25 8.25 12.0833 8.66667C11.9167 9.08333 12.0833 9.58333 12.5 9.75L18.3333 12.25V12.5H16.6667H3.33333H1.66667V12.1667L9.5 8.25C9.83333 8.08333 10 7.83333 10 7.5V5.66667C10 5.33333 9.75 5 9.41667 4.91667C8.75 4.66667 8.33333 4 8.33333 3.33333C8.33333 2.41667 9.08333 1.66667 10 1.66667C10.9167 1.66667 11.6667 2.41667 11.6667 3.33333C11.6667 3.83333 12 4.16667 12.5 4.16667C13 4.16667 13.3333 3.83333 13.3333 3.33333C13.3333 1.5 11.8333 0 10 0C8.16667 0 6.66667 1.5 6.66667 3.33333C6.66667 4.5 7.33333 5.66667 8.33333 6.25V7L0.5 10.9167C0.166667 11.0833 0 11.3333 0 11.6667V13.3333C0 13.8333 0.333333 14.1667 0.833333 14.1667H2.5V19.1667C2.5 19.6667 2.83333 20 3.33333 20H16.6667C17.1667 20 17.5 19.6667 17.5 19.1667V14.1667H19.1667C19.6667 14.1667 20 13.8333 20 13.3333V11.6667C20 11.3333 19.8333 11 19.5 10.9167Z" fill="#18BC9C"/>
</svg>
