<svg width="24" height="24" viewBox="0 0 24 24" fill="none" xmlns="http://www.w3.org/2000/svg">
<path d="M6 9.75V13.5H18V9.75C18.0083 8.89606 18.3115 8.07123 18.8582 7.41518C19.4049 6.75913 20.1616 6.31218 21 6.15V3C21 2.20435 20.6839 1.44129 20.1213 0.87868C19.5587 0.316071 18.7956 0 18 0L6 0C5.20435 0 4.44129 0.316071 3.87868 0.87868C3.31607 1.44129 3 2.20435 3 3V6.15C3.83844 6.31218 4.59508 6.75913 5.14178 7.41518C5.68849 8.07123 5.99167 8.89606 6 9.75Z" fill="#9AA09E"/>
<path d="M21.75 7.5C21.1578 7.51446 20.5939 7.75615 20.175 8.17502C19.7562 8.59388 19.5145 9.15781 19.5 9.75V15H4.5V9.75C4.48554 9.15781 4.24385 8.59388 3.82498 8.17502C3.40612 7.75615 2.84219 7.51446 2.25 7.5C1.65781 7.51446 1.09388 7.75615 0.675017 8.17502C0.256154 8.59388 0.0144592 9.15781 0 9.75L0 21H3V24H6V21H18V24H21V21H24V9.75C23.9855 9.15781 23.7438 8.59388 23.325 8.17502C22.9061 7.75615 22.3422 7.51446 21.75 7.5Z" fill="#9AA09E"/>
</svg>
