<svg width="18" height="20" viewBox="0 0 18 20" fill="none" xmlns="http://www.w3.org/2000/svg">
<path d="M8.16663 5C7.67217 5 7.18882 4.85338 6.7777 4.57867C6.36658 4.30397 6.04615 3.91352 5.85693 3.45671C5.66771 2.99989 5.6182 2.49723 5.71466 2.01228C5.81113 1.52732 6.04923 1.08187 6.39886 0.732234C6.74849 0.382603 7.19395 0.144501 7.6789 0.0480379C8.16385 -0.0484251 8.66652 0.00108322 9.12334 0.190302C9.58015 0.379521 9.9706 0.699953 10.2453 1.11108C10.52 1.5222 10.6666 2.00555 10.6666 2.5C10.6666 3.16304 10.4032 3.79893 9.93439 4.26777C9.46555 4.73661 8.82967 5 8.16663 5Z" fill="#18BC9C"/>
<path d="M15.6667 20C16.5871 20 17.3333 19.2538 17.3333 18.3333C17.3333 17.4128 16.5871 16.6666 15.6667 16.6666C14.7462 16.6666 14 17.4128 14 18.3333C14 19.2538 14.7462 20 15.6667 20Z" fill="#18BC9C"/>
<path d="M7.33334 18.3333C6.59838 18.3373 5.8829 18.0971 5.29933 17.6503C4.71576 17.2035 4.29717 16.5755 4.10935 15.8649C3.92152 15.1543 3.9751 14.4015 4.26167 13.7247C4.54823 13.0479 5.05154 12.4854 5.69251 12.1258L5.35084 10.4166L5.09334 10.5466C4.29958 10.9465 3.62694 11.5511 3.14488 12.2978C2.66282 13.0445 2.38882 13.9064 2.35116 14.7944C2.31351 15.6824 2.51356 16.5644 2.93067 17.3493C3.34778 18.1342 3.96683 18.7935 4.72389 19.2591C5.48096 19.7248 6.3486 19.98 7.23723 19.9983C8.12585 20.0166 9.00326 19.7973 9.77885 19.3632C10.5544 18.9291 11.2001 18.2958 11.6492 17.5288C12.0982 16.7618 12.3344 15.8888 12.3333 15H10.6667C10.6667 15.884 10.3155 16.7319 9.69037 17.357C9.06524 17.9821 8.2174 18.3333 7.33334 18.3333Z" fill="#18BC9C"/>
<path d="M14.8333 11.6667H10.6991L9.8008 7.1725C9.71393 6.73927 9.45859 6.35826 9.09089 6.11324C8.7232 5.86821 8.27325 5.77922 7.83997 5.86584L3.02747 6.67834C2.90581 6.69945 2.79037 6.74734 2.68948 6.81853C2.5886 6.88973 2.5048 6.98245 2.44414 7.09L0.364136 10.7625L1.81497 11.5825L3.69664 8.255L6.52997 7.7775C6.52997 7.79417 6.52997 7.81 6.53497 7.8275L7.3683 11.9942C7.44391 12.3714 7.6477 12.7109 7.94511 12.955C8.24252 13.1991 8.61522 13.3328 8.99997 13.3333H14.8333V15H16.5V13.3333C16.5 12.8913 16.3244 12.4674 16.0118 12.1548C15.6993 11.8423 15.2753 11.6667 14.8333 11.6667Z" fill="#18BC9C"/>
</svg>
