<svg width="20" height="20" viewBox="0 0 20 20" fill="none" xmlns="http://www.w3.org/2000/svg">
<path d="M9.16671 5C9.66671 5 10 4.66667 10 4.16667V0.833333C10 0.333333 9.66671 0 9.16671 0C8.66671 0 8.33337 0.333333 8.33337 0.833333V4.16667C8.33337 4.66667 8.66671 5 9.16671 5Z" fill="#18BC9C"/>
<path d="M4.16671 5.83333C4.66671 5.83333 5.00004 5.5 5.00004 5V3.33333C5.00004 2.83333 4.66671 2.5 4.16671 2.5C3.66671 2.5 3.33337 2.83333 3.33337 3.33333V5C3.33337 5.5 3.66671 5.83333 4.16671 5.83333Z" fill="#18BC9C"/>
<path d="M14.1667 5.83333C14.6667 5.83333 15 5.5 15 5V3.33333C15 2.83333 14.6667 2.5 14.1667 2.5C13.6667 2.5 13.3334 2.83333 13.3334 3.33333V5C13.3334 5.5 13.6667 5.83333 14.1667 5.83333Z" fill="#18BC9C"/>
<path d="M19.1667 9.16663H18.3333C18.3333 7.74996 17.25 6.66663 15.8333 6.66663C14.4167 6.66663 13.3333 7.74996 13.3333 9.16663H11.6667C11.6667 7.74996 10.5833 6.66663 9.16667 6.66663C7.75 6.66663 6.66667 7.74996 6.66667 9.16663H5C5 7.74996 3.91667 6.66663 2.5 6.66663C1.08333 6.66663 0 7.74996 0 9.16663V17.5C0 18.9166 1.08333 20 2.5 20C3.91667 20 5 18.9166 5 17.5H6.66667C6.66667 18.9166 7.75 20 9.16667 20C10.5833 20 11.6667 18.9166 11.6667 17.5H13.3333C13.3333 18.9166 14.4167 20 15.8333 20C17.25 20 18.3333 18.9166 18.3333 17.5V10.8333H19.1667C19.6667 10.8333 20 10.5 20 9.99996C20 9.49996 19.6667 9.16663 19.1667 9.16663ZM5 15.8333V10.8333H6.66667V15.8333H5ZM11.6667 15.8333V10.8333H13.3333V15.8333H11.6667Z" fill="#18BC9C"/>
</svg>
