<svg width="20" height="20" viewBox="0 0 20 20" fill="none" xmlns="http://www.w3.org/2000/svg">
<path d="M11.7017 2.49998C11.852 5.47082 12.7927 8.34766 14.4267 10.8333H19.1667V1.66665C19.1667 1.44563 19.0789 1.23367 18.9226 1.07739C18.7663 0.92111 18.5544 0.833313 18.3334 0.833313H1.66671C1.44569 0.833313 1.23373 0.92111 1.07745 1.07739C0.921171 1.23367 0.833374 1.44563 0.833374 1.66665V10.8333H5.57337C7.20739 8.34766 8.14812 5.47082 8.29837 2.49998H9.16671V14.1666H5.40421L4.88337 12.5H0.833374V18.3333C0.833374 18.5543 0.921171 18.7663 1.07745 18.9226C1.23373 19.0788 1.44569 19.1666 1.66671 19.1666H5.83337C5.96429 19.1668 6.0934 19.1361 6.21023 19.077C6.32707 19.0179 6.42834 18.9322 6.50585 18.8267C6.58336 18.7212 6.63492 18.5989 6.65635 18.4697C6.67778 18.3406 6.66848 18.2082 6.62921 18.0833L5.92504 15.8333H14.075L13.3709 18.0833C13.3316 18.2082 13.3223 18.3406 13.3437 18.4697C13.3652 18.5989 13.4167 18.7212 13.4942 18.8267C13.5717 18.9322 13.673 19.0179 13.7898 19.077C13.9067 19.1361 14.0358 19.1668 14.1667 19.1666H18.3334C18.5544 19.1666 18.7663 19.0788 18.9226 18.9226C19.0789 18.7663 19.1667 18.5543 19.1667 18.3333V12.5H15.1167L14.5959 14.1666H10.8334V2.49998H11.7017Z" fill="#18BC9C"/>
</svg>
