<svg width="20" height="18" viewBox="0 0 20 18" fill="none" xmlns="http://www.w3.org/2000/svg">
<path d="M19.1667 0.666626H0.833333C0.373333 0.666626 0 1.03996 0 1.49996V16.5C0 16.96 0.373333 17.3333 0.833333 17.3333H19.1667C19.6267 17.3333 20 16.96 20 16.5V1.49996C20 1.03996 19.6267 0.666626 19.1667 0.666626ZM12.5 12.3333C12.5 12.7933 12.1267 13.1666 11.6667 13.1666H3.33333C2.87333 13.1666 2.5 12.7933 2.5 12.3333V5.66663C2.5 5.20663 2.87333 4.83329 3.33333 4.83329H11.6667C12.1267 4.83329 12.5 5.20663 12.5 5.66663V12.3333ZM17.5 13.1666H14.1667V11.5H17.5V13.1666ZM15.8333 8.16663C14.9142 8.16663 14.1667 7.41913 14.1667 6.49996C14.1667 5.58079 14.9142 4.83329 15.8333 4.83329C16.7525 4.83329 17.5 5.58079 17.5 6.49996C17.5 7.41913 16.7525 8.16663 15.8333 8.16663Z" fill="#18BC9C"/>
</svg>
