<svg width="20" height="20" viewBox="0 0 20 20" fill="none" xmlns="http://www.w3.org/2000/svg">
<path d="M10.8333 1.74194V0.833333C10.8333 0.373128 10.4606 0 10 0C9.53939 0 9.16667 0.373128 9.16667 0.833333V1.74194C6.80573 2.14055 5 4.19398 5 6.66667C5 9.14022 6.9401 15 10 15C13.0599 15 15 9.14022 15 6.66667C15 4.19398 13.1943 2.14055 10.8333 1.74194Z" fill="#18BC9C"/>
<path d="M9.99996 16.6667C9.53935 16.6667 9.16663 17.0398 9.16663 17.5V19.1667C9.16663 19.6269 9.53935 20 9.99996 20C10.4606 20 10.8333 19.6269 10.8333 19.1667V17.5C10.8333 17.0398 10.4606 16.6667 9.99996 16.6667Z" fill="#18BC9C"/>
<path d="M15.8927 14.7139C15.5672 14.3884 15.0399 14.3884 14.7144 14.7139C14.3888 15.039 14.3888 15.5668 14.7144 15.8923L15.8927 17.0711C16.2183 17.3966 16.7456 17.3966 17.0711 17.0711C17.3966 16.746 17.3966 16.2182 17.0711 15.8927L15.8927 14.7139Z" fill="#18BC9C"/>
<path d="M19.1666 9.16669H17.5C17.0393 9.16669 16.6666 9.53982 16.6666 10C16.6666 10.4602 17.0393 10.8334 17.5 10.8334H19.1666C19.6272 10.8334 20 10.4602 20 10C20 9.53982 19.6272 9.16669 19.1666 9.16669Z" fill="#18BC9C"/>
<path d="M4.10722 14.7139L2.92883 15.8927C2.60331 16.2182 2.60331 16.746 2.92883 17.0711C3.25436 17.3966 3.78169 17.3966 4.10722 17.0711L5.2856 15.8923C5.61112 15.5668 5.61112 15.039 5.2856 14.7139C4.96008 14.3884 4.43274 14.3884 4.10722 14.7139Z" fill="#18BC9C"/>
<path d="M3.33333 10C3.33333 9.53982 2.96061 9.16669 2.5 9.16669H0.833333C0.372721 9.16669 0 9.53982 0 10C0 10.4602 0.372721 10.8334 0.833333 10.8334H2.5C2.96061 10.8334 3.33333 10.4602 3.33333 10Z" fill="#18BC9C"/>
</svg>
