<svg width="257" height="25" viewBox="0 0 257 25" fill="none" xmlns="http://www.w3.org/2000/svg">
<path fill-rule="evenodd" clip-rule="evenodd" d="M0 0H8.67102C10.4689 0 12.0664 0.174502 13.4658 0.523063C14.8653 0.871625 16.043 1.38317 16.9997 2.05815C17.9555 2.73313 18.6832 3.55692 19.1842 4.52952C19.6839 5.50213 19.9353 6.61248 19.9353 7.86057C19.9353 9.07499 19.6507 10.1601 19.0821 11.1163C18.513 12.0721 17.7337 12.8848 16.7438 13.5536C15.7539 14.2232 14.596 14.7344 13.2709 15.0891C11.9454 15.443 10.5258 15.6202 9.01293 15.6202H7.54446V23.75H0V0ZM9.04501 10.8294C10.25 10.8294 11.1955 10.5818 11.8771 10.0871C12.5596 9.59234 12.901 8.85004 12.901 7.8606C12.901 7.37696 12.8011 6.95532 12.6021 6.59568C12.4041 6.23561 12.1298 5.93532 11.783 5.69306C11.4366 5.45168 11.0293 5.26876 10.5628 5.14519C10.0958 5.02162 9.58992 4.95962 9.04367 4.95962H7.54069V10.7616C7.69977 10.7842 7.90501 10.801 8.15506 10.8121C8.40779 10.8236 8.70355 10.8294 9.04501 10.8294ZM21.1812 12.5252C21.1812 9.06961 22.3043 6.15752 24.5518 3.78983C26.9493 1.26328 30.1921 0 34.2806 0C36.2727 0 38.0736 0.314145 39.6838 0.943329C41.2936 1.57162 42.6661 2.44132 43.801 3.55199C44.936 4.6622 45.8104 5.98527 46.4244 7.5203C47.0384 9.05578 47.3463 10.7242 47.3463 12.5257C47.3463 13.6136 47.2186 14.6783 46.9631 15.7207C46.7081 16.7631 46.3291 17.7461 45.8259 18.6689C45.3223 19.5926 44.6983 20.4427 43.9575 21.2182C43.2163 21.9946 42.3619 22.6631 41.3948 23.2236C40.4287 23.7849 39.3517 24.2209 38.1634 24.5328C36.9761 24.8438 35.6829 25 34.2806 25C32.8456 25 31.5268 24.842 30.3281 24.5252C29.1293 24.2084 28.0436 23.7671 27.0707 23.1995C26.0977 22.6319 25.2438 21.9589 24.508 21.1772C23.7722 20.3954 23.1587 19.5431 22.6665 18.6207C22.1738 17.6975 21.8034 16.7193 21.5544 15.689C21.3053 14.6555 21.1812 13.6015 21.1812 12.5252ZM34.2809 18.6774C35.1954 18.6774 35.9746 18.4873 36.6177 18.1084C37.2609 17.7291 37.7873 17.2414 38.1988 16.647C38.6098 16.0517 38.9117 15.3864 39.102 14.6497C39.2922 13.913 39.3884 13.1936 39.3884 12.4913C39.3884 11.5734 39.2694 10.7327 39.0322 9.96741C38.7945 9.20302 38.4529 8.53992 38.0072 7.97946C37.5611 7.4181 37.0228 6.97366 36.3915 6.64523C35.7602 6.31681 35.0563 6.13519 34.2809 6.10128C33.354 6.12404 32.5666 6.32796 31.918 6.71306C31.2693 7.09815 30.7393 7.59436 30.3283 8.19989C29.9182 8.80632 29.6158 9.48637 29.4255 10.2392C29.2344 10.9928 29.1391 11.7434 29.1391 12.4913C29.1391 13.3748 29.2577 14.1936 29.4944 14.9473C29.7321 15.7006 30.0742 16.3521 30.5194 16.9014C30.966 17.4511 31.507 17.8844 32.1447 18.2017C32.7806 18.5189 33.4931 18.6774 34.2809 18.6774ZM59.755 0H51.084V23.75H58.6302V15.6202H60.0969C61.6097 15.6202 63.0294 15.443 64.3549 15.0891C65.68 14.7344 66.8379 14.2232 67.8278 13.5536C68.8177 12.8848 69.5969 12.0721 70.166 11.1163C70.7347 10.1601 71.0193 9.07499 71.0193 7.86057C71.0193 6.61248 70.7688 5.50213 70.2682 4.52952C69.7672 3.55692 69.0395 2.73313 68.0837 2.05815C67.1278 1.38317 65.9502 0.871625 64.5507 0.523063C63.1513 0.174502 61.5528 0 59.755 0ZM62.9628 10.0871C62.2803 10.5818 61.3357 10.8294 60.1298 10.8294C59.7883 10.8294 59.4921 10.8236 59.2399 10.8121C58.9898 10.801 58.7846 10.7842 58.6255 10.7616V4.95962H60.1285C60.6747 4.95962 61.1806 5.02162 61.6476 5.14519C62.1141 5.26876 62.5214 5.45168 62.8687 5.69306C63.2146 5.93532 63.4889 6.23561 63.6878 6.59568C63.8859 6.95532 63.9867 7.37696 63.9867 7.8606C63.9867 8.85004 63.6444 9.59234 62.9628 10.0871ZM95.7903 17.4919C95.1156 18.2148 94.126 18.5763 92.8226 18.5763C90.1697 18.5763 88.8431 17.1523 88.8453 14.3056V0H80.9871V14.3065C80.9871 17.7093 82.1946 20.3714 84.6095 22.2928C86.8546 24.0979 89.5928 25 92.8239 25C93.7639 25 94.711 24.9107 95.663 24.7311C96.6146 24.5524 97.5309 24.2743 98.4097 23.8978C99.288 23.5213 100.107 23.044 100.867 22.4651C101.627 21.8862 102.287 21.2006 102.848 20.4074C103.41 19.6152 103.852 18.7122 104.176 17.6993C104.499 16.6873 104.66 15.5555 104.66 14.3056V0H96.8021V14.3065C96.8021 15.7068 96.4646 16.7689 95.7903 17.4919ZM118.314 0H109.645V23.75H117.189V15.6202H118.657C120.17 15.6202 121.59 15.443 122.915 15.0891C124.24 14.7344 125.398 14.2232 126.388 13.5536C127.378 12.8848 128.157 12.0721 128.726 11.1163C129.294 10.1601 129.58 9.07499 129.58 7.86057C129.58 6.61248 129.328 5.50213 128.828 4.52952C128.327 3.55692 127.599 2.73313 126.643 2.05815C125.687 1.38317 124.51 0.871625 123.11 0.523063C121.711 0.174502 120.113 0 118.314 0ZM121.522 10.0871C120.839 10.5818 119.895 10.8294 118.689 10.8294C118.348 10.8294 118.052 10.8236 117.8 10.8121C117.55 10.801 117.344 10.7842 117.186 10.7616V4.95962H118.688C119.235 4.95962 119.741 5.02162 120.208 5.14519C120.674 5.26876 121.081 5.45168 121.428 5.69306C121.775 5.93532 122.048 6.23561 122.247 6.59568C122.446 6.95532 122.546 7.37696 122.546 7.8606C122.546 8.85004 122.204 9.59234 121.522 10.0871ZM155.079 20.3552C155.522 19.3086 155.744 18.0707 155.744 16.6442C155.744 14.708 154.94 13.0608 153.333 11.7016C151.726 10.3428 149.363 9.30694 146.243 8.59346C144.977 8.21977 144.344 7.67663 144.344 6.96315C144.344 6.48779 144.482 6.17341 144.758 6.02091C145.033 5.86751 145.431 5.79125 145.95 5.79125C146.03 5.79125 146.115 5.79437 146.2 5.79973C146.286 5.80597 146.393 5.80864 146.52 5.80864H147.107C147.361 5.80864 147.602 5.81979 147.833 5.84253C148.063 5.86528 148.375 5.91656 148.766 5.99549C149.157 6.07442 149.678 6.1966 150.329 6.3607C150.98 6.5248 151.864 6.74821 152.981 7.03138L154.879 1.8341C152.3 0.611366 149.513 0 146.519 0C140.21 0 137.055 2.58147 137.055 7.74441C137.055 8.65009 137.199 9.47996 137.487 10.2327C137.773 10.9854 138.174 11.6592 138.686 12.2532C139.198 12.848 139.807 13.36 140.509 13.7903C141.211 14.2206 141.971 14.56 142.788 14.8092C143.375 15.013 144.009 15.2025 144.688 15.3778C145.367 15.5535 145.992 15.7488 146.562 15.9637C147.132 16.1791 147.607 16.4226 147.988 16.6942C148.368 16.9657 148.558 17.2997 148.558 17.6962C148.558 18.0244 148.473 18.2839 148.306 18.477C148.141 18.6687 147.918 18.8163 147.641 18.9184C147.366 19.0206 147.047 19.0857 146.683 19.1138C146.32 19.1436 145.943 19.1566 145.553 19.1566C145.311 19.1566 145.028 19.1352 144.706 19.0897C144.384 19.0446 144.044 18.9916 143.687 18.9287C143.331 18.8658 142.974 18.7954 142.617 18.716C142.26 18.6357 141.927 18.5622 141.615 18.4948L139.024 17.867C138.955 18.0369 138.886 18.2406 138.817 18.4783C138.415 19.9048 137.863 21.479 137.159 23.1998C139.704 24.3998 142.664 25 146.036 25C147.557 25 148.919 24.8301 150.121 24.4894C151.325 24.151 152.342 23.6386 153.171 22.9532C154 22.2687 154.635 21.4027 155.079 20.3552ZM160.728 0H168.748V9.44597H176.348V0H184.401V23.75H176.348V14.4387H168.748V23.7496H160.728V0ZM185.647 12.5252C185.647 9.06961 186.771 6.15752 189.019 3.78983C191.416 1.26328 194.659 0 198.748 0C200.738 0 202.54 0.314145 204.151 0.943329C205.761 1.57162 207.133 2.44132 208.268 3.55199C209.402 4.6622 210.277 5.98527 210.891 7.5203C211.505 9.05578 211.812 10.7242 211.812 12.5257C211.812 13.6136 211.685 14.6783 211.43 15.7207C211.175 16.7631 210.796 17.7461 210.292 18.6689C209.788 19.5926 209.166 20.4427 208.425 21.2182C207.683 21.9946 206.829 22.6631 205.862 23.2236C204.895 23.7849 203.818 24.2209 202.631 24.5328C201.443 24.8438 200.149 25 198.748 25C197.312 25 195.994 24.842 194.795 24.5252C193.597 24.2079 192.511 23.7671 191.537 23.1995C190.564 22.6323 189.709 21.9589 188.975 21.1772C188.24 20.3954 187.626 19.5431 187.134 18.6207C186.641 17.6975 186.27 16.7193 186.022 15.689C185.773 14.6555 185.647 13.6015 185.647 12.5252ZM198.748 18.6774C199.662 18.6774 200.442 18.4873 201.084 18.1084C201.726 17.7287 202.253 17.2414 202.666 16.647C203.075 16.0517 203.378 15.3864 203.568 14.6497C203.759 13.9134 203.855 13.1936 203.855 12.4913C203.855 11.5734 203.736 10.7327 203.5 9.96741C203.262 9.20302 202.92 8.53992 202.474 7.97946C202.028 7.4181 201.49 6.97366 200.859 6.64523C200.227 6.31681 199.524 6.13519 198.748 6.10128C197.821 6.12404 197.034 6.32796 196.384 6.71306C195.735 7.09815 195.206 7.59436 194.796 8.19989C194.385 8.80632 194.083 9.48637 193.892 10.2392C193.702 10.9928 193.606 11.7434 193.606 12.4913C193.606 13.3748 193.725 14.1936 193.962 14.9473C194.199 15.7006 194.541 16.3521 194.987 16.9014C195.433 17.4511 195.974 17.8844 196.611 18.2017C197.248 18.5189 197.959 18.6774 198.748 18.6774ZM224.22 0H215.55L215.551 23.75H223.095V15.6202H224.563C226.075 15.6202 227.495 15.443 228.821 15.0891C230.146 14.7344 231.304 14.2232 232.294 13.5536C233.284 12.8848 234.063 12.0721 234.632 11.1163C235.2 10.1601 235.485 9.07499 235.485 7.86057C235.485 6.61248 235.234 5.50213 234.733 4.52952C234.233 3.55692 233.506 2.73313 232.549 2.05815C231.593 1.38317 230.415 0.871625 229.016 0.523063C227.617 0.174502 226.019 0 224.22 0ZM227.428 10.0871C226.747 10.5818 225.801 10.8294 224.595 10.8294C224.255 10.8294 223.957 10.8236 223.706 10.8121C223.456 10.801 223.25 10.7842 223.092 10.7616V4.95962H224.594C225.141 4.95962 225.647 5.02162 226.114 5.14519C226.58 5.26876 226.988 5.45168 227.334 5.69306C227.681 5.93532 227.955 6.23561 228.153 6.59568C228.352 6.95532 228.452 7.37696 228.452 7.8606C228.452 8.85004 228.111 9.59234 227.428 10.0871ZM256.002 20.3552C256.446 19.3086 256.667 18.0707 256.667 16.6442C256.667 14.708 255.864 13.0608 254.256 11.7016C252.65 10.3428 250.286 9.30694 247.166 8.59346C245.9 8.21977 245.267 7.67663 245.267 6.96315C245.267 6.48779 245.405 6.17341 245.681 6.02091C245.957 5.86751 246.355 5.79125 246.873 5.79125C246.954 5.79125 247.038 5.79437 247.124 5.79973C247.209 5.80597 247.316 5.80864 247.443 5.80864H248.03C248.284 5.80864 248.525 5.81979 248.757 5.84253C248.987 5.86528 249.298 5.91611 249.69 5.99549C250.08 6.07442 250.601 6.1966 251.252 6.3607C251.903 6.5248 252.787 6.74821 253.904 7.03138L255.801 1.8341C253.221 0.611366 250.435 0 247.442 0C241.132 0 237.977 2.58147 237.977 7.74441C237.977 8.65009 238.122 9.47996 238.409 10.2327C238.696 10.9854 239.096 11.6592 239.609 12.2532C240.122 12.848 240.729 13.36 241.432 13.7903C242.134 14.2206 242.892 14.56 243.711 14.8092C244.298 15.013 244.931 15.2025 245.611 15.3778C246.29 15.5535 246.915 15.7488 247.484 15.9637C248.055 16.1791 248.53 16.4226 248.91 16.6942C249.29 16.9657 249.48 17.2997 249.48 17.6962C249.48 18.0244 249.396 18.2839 249.23 18.477C249.063 18.6687 248.84 18.8163 248.564 18.9184C248.289 19.0206 247.969 19.0857 247.607 19.1138C247.243 19.1436 246.866 19.1566 246.475 19.1566C246.234 19.1566 245.952 19.1347 245.629 19.0897C245.307 19.0446 244.967 18.9916 244.61 18.9287C244.253 18.8658 243.896 18.7954 243.54 18.716C243.184 18.6357 242.85 18.5622 242.539 18.4948L239.947 17.867C239.879 18.0369 239.809 18.2406 239.74 18.4783C239.338 19.9048 238.785 21.479 238.083 23.1998C240.626 24.3998 243.586 25 246.96 25C248.48 25 249.842 24.8301 251.044 24.4894C252.248 24.151 253.264 23.6386 254.093 22.9532C254.922 22.2687 255.558 21.4027 256.002 20.3552Z" fill="white"/>
</svg>
