<svg width="20" height="20" viewBox="0 0 20 20" fill="none" xmlns="http://www.w3.org/2000/svg">
<path d="M9.73245 5.8C9.91024 5.27382 10.0006 4.72207 9.99995 4.16667C9.99995 1.86917 8.50495 0 6.66661 0C4.82828 0 3.33328 1.86917 3.33328 4.16667C3.33262 4.72207 3.42298 5.27382 3.60078 5.8C2.87646 6.77212 2.48987 7.95442 2.49995 9.16667C2.49995 11.5833 3.93411 13.6008 5.83328 14.0658V16.6667H7.49995V14.0658C9.39911 13.6008 10.8333 11.5817 10.8333 9.16667C10.8434 7.95442 10.4568 6.77212 9.73245 5.8Z" fill="#18BC9C"/>
<path d="M16.3993 5.8C16.5771 5.27382 16.6675 4.72207 16.6668 4.16667C16.6668 1.86917 15.1718 0 13.3335 0C12.8736 0.0118008 12.4224 0.128075 12.0141 0.340021C11.6058 0.551966 11.2511 0.854026 10.9768 1.22333C11.4335 2.13709 11.6698 3.14513 11.6668 4.16667C11.6671 4.61441 11.6227 5.06107 11.5343 5.5C12.1721 6.61642 12.5052 7.88091 12.5001 9.16667C12.5061 10.6904 12.0324 12.1773 11.146 13.4167C11.549 13.7223 12.0096 13.9433 12.5001 14.0667V16.6667H14.1668V14.0658C16.066 13.6008 17.5001 11.5817 17.5001 9.16667C17.5102 7.95442 17.1236 6.77212 16.3993 5.8Z" fill="#18BC9C"/>
<path d="M9.73245 5.8C9.91024 5.27382 10.0006 4.72207 9.99995 4.16667C9.99995 1.86917 8.50495 0 6.66661 0C4.82828 0 3.33328 1.86917 3.33328 4.16667C3.33262 4.72207 3.42298 5.27382 3.60078 5.8C2.87646 6.77212 2.48987 7.95442 2.49995 9.16667C2.49995 11.5833 3.93411 13.6008 5.83328 14.0658V16.6667H7.49995V14.0658C9.39911 13.6008 10.8333 11.5817 10.8333 9.16667C10.8434 7.95442 10.4568 6.77212 9.73245 5.8Z" fill="#18BC9C"/>
<path d="M19.6767 14.1525C19.1557 13.7546 18.6111 13.3886 18.0458 13.0566C17.7455 13.5348 17.3835 13.9713 16.9692 14.355C17.4398 14.6202 17.8952 14.9115 18.3333 15.2275V18.3333H1.66667V15.2275C2.1048 14.9115 2.56023 14.6202 3.03083 14.355C2.61651 13.9713 2.25451 13.5348 1.95417 13.0566C1.38889 13.3886 0.844283 13.7546 0.323333 14.1525C0.222683 14.2304 0.141209 14.3303 0.0851614 14.4445C0.0291139 14.5588 -1.80929e-05 14.6844 8.43031e-09 14.8116V19.1666C8.43031e-09 19.3877 0.0877974 19.5996 0.244078 19.7559C0.400358 19.9122 0.61232 20 0.833333 20H19.1667C19.3877 20 19.5996 19.9122 19.7559 19.7559C19.9122 19.5996 20 19.3877 20 19.1666V14.8116C20 14.6844 19.9709 14.5588 19.9148 14.4445C19.8588 14.3303 19.7773 14.2304 19.6767 14.1525Z" fill="#18BC9C"/>
</svg>
