<svg width="20" height="15" viewBox="0 0 20 15" fill="none" xmlns="http://www.w3.org/2000/svg">
<path d="M17.3949 6.21659L15.9783 1.97242C15.8677 1.64097 15.6557 1.35266 15.3723 1.14824C15.089 0.943823 14.7485 0.833635 14.3991 0.833254H5.60075C5.25063 0.832761 4.90924 0.942544 4.62503 1.14702C4.34083 1.3515 4.12823 1.6403 4.01742 1.97242L2.60075 6.21659L1.32159 7.49992C1.00993 7.81303 0.834437 8.23648 0.833252 8.67825V13.3333C0.833252 13.5543 0.921049 13.7662 1.07733 13.9225C1.23361 14.0788 1.44557 14.1666 1.66659 14.1666H4.16658C4.3876 14.1666 4.59956 14.0788 4.75584 13.9225C4.91212 13.7662 4.99992 13.5543 4.99992 13.3333V12.4999H14.9999V13.3333C14.9999 13.5543 15.0877 13.7662 15.244 13.9225C15.4003 14.0788 15.6122 14.1666 15.8333 14.1666H18.3333C18.5543 14.1666 18.7662 14.0788 18.9225 13.9225C19.0788 13.7662 19.1666 13.5543 19.1666 13.3333V8.67825C19.1654 8.23648 18.9899 7.81303 18.6782 7.49992L17.3949 6.21659ZM14.3991 2.49992L15.5099 5.83325H4.48992L5.60075 2.49992H14.3991ZM2.49992 8.67825L3.67825 7.49992H16.3216L17.4999 8.67825V10.8333H2.49992V8.67825Z" fill="#18BC9C"/>
</svg>
