<svg width="146" height="140" viewBox="0 0 146 140" fill="none" xmlns="http://www.w3.org/2000/svg">
<g id="&#226;&#128;&#158;">
<mask id="path-1-outside-1" maskUnits="userSpaceOnUse" x="0" y="0" width="146" height="140" fill="black">
<rect fill="white" width="146" height="140"/>
<path fill-rule="evenodd" clip-rule="evenodd" d="M46.8446 108.114C38.0743 123.63 25.0075 133.592 7.64414 138V118.429C13.8453 115.079 18.4962 109.04 21.5968 100.312C24.6974 91.584 26.2477 80.0791 26.2477 65.7973V59.7143H1V1H60V44.9035C60 71.5277 55.6149 92.5978 46.8446 108.114ZM131.845 108.114C123.074 123.63 110.008 133.592 92.6441 138V118.429C98.8453 115.079 103.496 109.04 106.597 100.312C109.697 91.584 111.248 80.0791 111.248 65.7973V59.7143H86V1H145V44.9035C145 71.5277 140.615 92.5978 131.845 108.114Z"/>
</mask>
<path d="M7.64414 138H6.64414V139.286L7.89021 138.969L7.64414 138ZM7.64414 118.429L7.16884 117.549L6.64414 117.832V118.429H7.64414ZM26.2477 59.7143H27.2477V58.7143H26.2477V59.7143ZM1 59.7143H0V60.7143H1V59.7143ZM1 1V0H0V1H1ZM60 1H61V0H60V1ZM92.6441 138H91.6441V139.286L92.8902 138.969L92.6441 138ZM131.845 108.114L130.974 107.622L131.845 108.114ZM92.6441 118.429L92.1688 117.549L91.6441 117.832V118.429H92.6441ZM111.248 59.7143H112.248V58.7143H111.248V59.7143ZM86 59.7143H85V60.7143H86V59.7143ZM86 1V0H85V1H86ZM145 1H146V0H145V1ZM7.89021 138.969C25.5166 134.495 38.8098 124.361 47.7151 108.606L45.974 107.622C37.3389 122.899 24.4984 132.69 7.39808 137.031L7.89021 138.969ZM6.64414 118.429V138H8.64414V118.429H6.64414ZM20.6545 99.977C17.6102 108.547 13.0912 114.349 7.16884 117.549L8.11945 119.308C14.5995 115.808 19.3823 109.533 22.5392 100.647L20.6545 99.977ZM25.2477 65.7973C25.2477 80.0201 23.7021 91.3985 20.6545 99.977L22.5392 100.647C25.6928 91.7694 27.2477 80.1382 27.2477 65.7973H25.2477ZM25.2477 59.7143V65.7973H27.2477V59.7143H25.2477ZM1 60.7143H26.2477V58.7143H1V60.7143ZM0 1V59.7143H2V1H0ZM60 0H1V2H60V0ZM61 44.9035V1H59V44.9035H61ZM47.7151 108.606C56.6021 92.8835 61 71.6213 61 44.9035H59C59 71.434 54.6277 92.3121 45.974 107.622L47.7151 108.606ZM92.8902 138.969C110.517 134.495 123.81 124.361 132.715 108.606L130.974 107.622C122.339 122.899 109.498 132.69 92.3981 137.031L92.8902 138.969ZM91.6441 118.429V138H93.6441V118.429H91.6441ZM105.655 99.977C102.61 108.547 98.0912 114.349 92.1688 117.549L93.1194 119.308C99.5995 115.808 104.382 109.533 107.539 100.647L105.655 99.977ZM110.248 65.7973C110.248 80.0201 108.702 91.3985 105.655 99.977L107.539 100.647C110.693 91.7694 112.248 80.1382 112.248 65.7973H110.248ZM110.248 59.7143V65.7973H112.248V59.7143H110.248ZM86 60.7143H111.248V58.7143H86V60.7143ZM85 1V59.7143H87V1H85ZM145 0H86V2H145V0ZM146 44.9035V1H144V44.9035H146ZM132.715 108.606C141.602 92.8835 146 71.6213 146 44.9035H144C144 71.434 139.628 92.3121 130.974 107.622L132.715 108.606Z" fill="#C5CDCB" mask="url(#path-1-outside-1)"/>
</g>
</svg>
