<svg width="20" height="20" viewBox="0 0 20 20" fill="none" xmlns="http://www.w3.org/2000/svg">
<path d="M19.1667 0H0.833333C0.333333 0 0 0.333333 0 0.833333V8.33333H20V0.833333C20 0.333333 19.6667 0 19.1667 0ZM10 5.83333H6.66667V4.16667H10V5.83333ZM13.3333 5.83333H11.6667V2.5H13.3333V5.83333ZM16.6667 5.83333H15V2.5H16.6667V5.83333Z" fill="#18BC9C"/>
<path d="M0 17.5C0 18 0.333333 18.3333 0.833333 18.3333H1.66667V19.1667C1.66667 19.6667 2 20 2.5 20C3 20 3.33333 19.6667 3.33333 19.1667V18.3333H16.6667V19.1667C16.6667 19.6667 17 20 17.5 20C18 20 18.3333 19.6667 18.3333 19.1667V18.3333H19.1667C19.6667 18.3333 20 18 20 17.5V10H0V17.5ZM13.3333 14.1667H16.6667V15.8333H13.3333V14.1667ZM10 12.5H11.6667V15.8333H10V12.5ZM6.66667 12.5H8.33333V15.8333H6.66667V12.5ZM3.33333 12.5H5V15.8333H3.33333V12.5Z" fill="#18BC9C"/>
</svg>
