<svg width="24" height="24" viewBox="0 0 24 24" fill="none" xmlns="http://www.w3.org/2000/svg">
<path d="M22.5 4.49955C19.875 4.49955 15.6825 2.38755 12.9 0.299547C12.3675 -0.102453 11.6325 -0.102453 11.1 0.299547C8.3175 2.38755 4.125 4.49955 1.5 4.49955C0.672 4.49955 0 5.17005 0 5.99955C0 14.3755 4.0515 20.725 11.409 23.878C11.598 23.959 11.799 23.9995 12 23.9995C12.201 23.9995 12.402 23.959 12.591 23.878C19.9485 20.725 24 14.3755 24 5.99955C24 5.17005 23.328 4.49955 22.5 4.49955ZM12 20.8555V11.9995H3.924C3.447 10.5715 3.1425 9.02805 3.0405 7.36005C5.9325 6.87255 9.354 5.16705 12 3.34455V11.9995H20.076C18.759 15.9505 16.041 18.9641 12 20.8555Z" fill="#9AA09E"/>
</svg>
