<svg width="20" height="20" viewBox="0 0 20 20" fill="none" xmlns="http://www.w3.org/2000/svg">
<path d="M7.5 15H10C10.75 15 11.25 14.5 11.25 13.75V4.37502L15.25 14.25C15.5 14.875 16.25 15.25 16.875 14.875L19.25 13.875C19.875 13.625 20.25 12.875 19.875 12.25L15.125 0.62502C14.875 2.01762e-05 14.125 -0.37498 13.5 2.01464e-05L11.25 1.00002C11.125 0.50002 10.625 2.01464e-05 10 2.01464e-05H7.5C6.75 2.01464e-05 6.25 0.50002 6.25 1.25002V13.75C6.25 14.5 6.75 15 7.5 15Z" fill="#18BC9C"/>
<path d="M1.25 15H3.75C4.5 15 5 14.5 5 13.75V1.25C5 0.5 4.5 0 3.75 0H1.25C0.5 0 0 0.5 0 1.25V13.75C0 14.5 0.5 15 1.25 15Z" fill="#18BC9C"/>
<path d="M20 17.5H0V20H20V17.5Z" fill="#18BC9C"/>
</svg>
